<?xml version="1.0" encoding="UTF-8" standalone="no"?>
<!-- Created with Inkscape (http://www.inkscape.org/) -->

<svg
   version="1.1"
   id="svg2"
   width="557.5733"
   height="600"
   viewBox="0 0 557.5733 600"
   sodipodi:docname="Clear Star Star - Black on White.svg"
   inkscape:version="1.3 (0e150ed6c4, 2023-07-21)"
   xmlns:inkscape="http://www.inkscape.org/namespaces/inkscape"
   xmlns:sodipodi="http://sodipodi.sourceforge.net/DTD/sodipodi-0.dtd"
   xmlns="http://www.w3.org/2000/svg"
   xmlns:svg="http://www.w3.org/2000/svg">
  <defs
     id="defs6" />
  <sodipodi:namedview
     id="namedview4"
     pagecolor="#ffffff"
     bordercolor="#000000"
     borderopacity="0.25"
     inkscape:showpageshadow="2"
     inkscape:pageopacity="0.0"
     inkscape:pagecheckerboard="0"
     inkscape:deskcolor="#d1d1d1"
     inkscape:zoom="1.8683333"
     inkscape:cx="278.85816"
     inkscape:cy="300"
     inkscape:window-width="2256"
     inkscape:window-height="1398"
     inkscape:window-x="-11"
     inkscape:window-y="-11"
     inkscape:window-maximized="1"
     inkscape:current-layer="g8" />
  <g
     id="g8"
     inkscape:groupmode="layer"
     inkscape:label="ink_ext_XXXXXX"
     transform="matrix(1.3333333,0,0,-1.3333333,0,600)">
    <path
       d="m 308.161,94.6371 c 7.808,30.6179 -7.856,51.4099 -15.515,73.3279 -7.593,21.735 -3.876,39.154 12.387,53.764 17.986,16.158 37.49,30.628 55.522,46.747 7.55,6.745 19.66,11.607 16.181,28.931 -42.53,-1.046 -85.262,-12.71 -128.72,-8.225 -15.271,34.028 -29.543,65.938 -43.993,97.771 -0.808,1.777 -2.86,3.76 -4.644,4.124 -1.9,0.39 -4.174,-1.032 -10.581,-2.952 -7.755,-24.295 -16.973,-50.908 -24.685,-77.946 -8.082,-28.361 -22.721,-46.452 -55.246,-46.218 -16.8404,0.126 -35.4783,1.083 -50.0912,-17.932 8.9637,-6.321 17.5094,-12.571 26.2668,-18.492 39.1214,-26.461 41.9414,-32.376 30.3144,-75.442 -7.292,-27.019 -16.1422,-53.6161 -27.3851,-90.5669 17.8831,9.95 27.2891,13.6828 34.8981,19.6938 22.434,17.7301 43.653,37.0091 66.292,54.4651 26.352,20.323 37.556,20.121 64.669,0.546 17.549,-12.666 34.405,-26.286 54.33,-41.5959 z M 126.392,296.543 c 5.517,15.033 11.21,29.02 15.794,43.361 7.348,22.99 13.762,46.274 20.958,69.317 5.116,16.4 6.755,38.311 27.646,40.568 25.39,2.74 29.676,-21.808 37.741,-38.983 13.892,-29.589 26.7,-59.685 39.741,-89.069 50.179,-13.289 98.628,10.022 149.91,-4.419 -2.026,-10.468 -0.897,-22.519 -6.345,-29.228 -12.339,-15.192 -27.663,-28.034 -42.246,-41.313 -16.109,-14.662 -32.747,-28.746 -51.364,-45.013 13.662,-40.234 27.053,-79.355 40.21,-118.5531 5.504,-16.4 16.592,-35.6429 0.228,-48.9839 C 338.257,17.5852 322.632,37.2809 307.52,48.7789 277.937,71.2891 248.784,94.3719 217.467,118.765 200.881,107.776 186.203,99.0551 172.629,88.8672 139.257,63.8191 106.718,37.652 73.0715,12.9871 65.3461,7.32813 54.5035,5.91797 37.9609,0 47.7281,67.3309 79.8859,121.185 90.527,184.431 73.4684,195.29 57.0852,205.282 41.1781,215.986 28.5285,224.492 15.941,233.253 4.31055,243.067 c -7.92032,6.682 -4.30625312,23.234 5.79255,27.57 9.9024,4.25 20.2817,7.924 30.8168,10.075 27.8551,5.696 55.9086,10.426 85.4721,15.831"
       style="fill:#231f20;fill-opacity:1;fill-rule:nonzero;stroke:none;stroke-width:0.1"
       id="path12" />
  </g>
</svg>
